KRSPY-parametric-WideBlackMaxGrade-maxXOPQminYOPQminXTRA.ufo
<glyph name="comma" format="2">
  <advance width="424"/>
  <unicode hex="002C"/>
  <outline>
    <contour>
      <point x="169" y="-9" type="line"/>
      <point x="403" y="0" type="line"/>
      <point x="403" y="2" type="line"/>
      <point x="-315" y="2" type="line"/>
      <point x="-409" y="2" type="line"/>
      <point x="-409" y="0" type="line"/>
      <point x="51" y="0" type="line"/>
      <point x="51" y="-9" type="line"/>
    </contour>
  </outline>
</glyph>
<glyph name="three" format="2">
  <advance width="1799"/>
  <unicode hex="0033"/>
  <outline>
    <contour>
      <point x="23" y="0" type="line" identifier="O9abUc1nmN"/>
      <point x="1762" y="0" type="line" identifier="kMJYMTfXCq"/>
      <point x="1762" y="725" type="line" identifier="su2XmdS8e8"/>
      <point x="1610" y="800" type="line" identifier="JQaOzDQqlF"/>
      <point x="1610" y="805" type="line"/>
      <point x="1724" y="917" type="line" identifier="S91TzLL02W"/>
      <point x="1724" y="1600" type="line" identifier="xg8x2Ki40p"/>
      <point x="26" y="1600" type="line" identifier="pE1XSRiy68"/>
      <point x="26" y="1243" type="line" identifier="5lNstGRcSF"/>
      <point x="839" y="1243" type="line" identifier="AcE5xKDZfE"/>
      <point x="839" y="1598" type="line" identifier="7ogBYufWpl"/>
      <point x="911" y="1598" type="line" identifier="RHLvSX2Jv6"/>
      <point x="911" y="899" type="line" identifier="YUjTrmoWd9"/>
      <point x="805" y="817" type="line"/>
      <point x="805" y="810" type="line" identifier="iic1IBkDqp"/>
      <point x="131" y="810" type="line" identifier="lRLJEhXMlO"/>
      <point x="131" y="808" type="line" identifier="8aKgEELrVU"/>
      <point x="949" y="808" type="line" identifier="Dm8zjmbhNr"/>
      <point x="949" y="2" type="line" identifier="xv9CFHiFgB"/>
      <point x="836" y="2" type="line" identifier="YajKQV3MHP"/>
      <point x="836" y="302" type="line" identifier="36SchVkwze"/>
      <point x="23" y="302" type="line" identifier="tVui9PiOjA"/>
    </contour>
  </outline>
</glyph>
<glyph name="four" format="2">
  <advance width="1880"/>
  <unicode hex="0034"/>
  <outline>
    <contour>
      <point x="930" y="0" type="line"/>
      <point x="1743" y="0" type="line"/>
      <point x="1743" y="812" type="line"/>
      <point x="1857" y="812" type="line"/>
      <point x="1857" y="814" type="line"/>
      <point x="1743" y="814" type="line"/>
      <point x="1743" y="1600" type="line"/>
      <point x="930" y="1600" type="line"/>
      <point x="930" y="814" type="line"/>
      <point x="836" y="814" type="line"/>
      <point x="836" y="895" type="line"/>
      <point x="929" y="1680" type="line"/>
      <point x="135" y="1680" type="line"/>
      <point x="23" y="894" type="line"/>
      <point x="23" y="812" type="line"/>
      <point x="930" y="812" type="line"/>
    </contour>
  </outline>
</glyph>
<glyph name="six" format="2">
  <advance width="1765"/>
  <unicode hex="0036"/>
  <outline>
    <contour>
      <point x="21" y="0" type="line" identifier="uiw6aBUf4P"/>
      <point x="1759" y="0" type="line" identifier="jtYkxiUX6G"/>
      <point x="1759" y="801" type="line" identifier="2G5L37c87I"/>
      <point x="833" y="801" type="line"/>
      <point x="833" y="1345" type="line"/>
      <point x="900" y="1598" type="line"/>
      <point x="946" y="1598" type="line"/>
      <point x="946" y="1191" type="line"/>
      <point x="1758" y="1191" type="line" identifier="Wuidbv6mUe"/>
      <point x="1758" y="1600" type="line" identifier="oGvEEuxnYv"/>
      <point x="133" y="1600" type="line" identifier="xR3pEHbMJx"/>
      <point x="21" y="1346" type="line" identifier="KnMArb0tv8"/>
    </contour>
    <contour>
      <point x="946" y="799" type="line"/>
      <point x="946" y="2" type="line"/>
      <point x="833" y="2" type="line"/>
      <point x="833" y="799" type="line"/>
    </contour>
  </outline>
</glyph>
<glyph name="B" format="2">
  <advance width="1834"/>
  <unicode hex="0042"/>
  <outline>
    <contour>
      <point x="57" y="0" type="line" identifier="hvY9r8RmLr"/>
      <point x="1797" y="0" type="line" identifier="9QFpw7nfq7"/>
      <point x="1797" y="573" type="line" identifier="543PerILpr"/>
      <point x="1661" y="799" type="line" identifier="zhomauHW30"/>
      <point x="1661" y="801" type="line" identifier="870ZhtaozS"/>
      <point x="1793" y="1030" type="line" identifier="eGKH52Jgnk"/>
      <point x="1793" y="1600" type="line" identifier="FaP204GrdB"/>
      <point x="57" y="1600" type="line" identifier="JEev70GAj6"/>
    </contour>
    <contour>
      <point x="870" y="801" type="line" identifier="By7dfMihfe"/>
      <point x="870" y="1598" type="line" identifier="1p5hKrurVy"/>
      <point x="980" y="1598" type="line" identifier="Qby8aMtF2X"/>
      <point x="980" y="868" type="line" identifier="9lW01gQyU2"/>
      <point x="942" y="801" type="line" identifier="xpxyvIzPoc"/>
    </contour>
    <contour>
      <point x="870" y="2" type="line" identifier="jaMSiLrCua"/>
      <point x="870" y="799" type="line" identifier="XSrxNd2axx"/>
      <point x="942" y="799" type="line" identifier="VyYlzRh5nq"/>
      <point x="984" y="739" type="line" identifier="lsRGatjQja"/>
      <point x="984" y="2" type="line" identifier="xhlDJ3CjD5"/>
    </contour>
  </outline>
</glyph>
<glyph name="C" format="2">
  <advance width="1798"/>
  <unicode hex="0043"/>
  <outline>
    <contour>
      <point x="37" y="0" type="line" identifier="7lPhzTnk2Z"/>
      <point x="1770" y="0" type="line" identifier="qJVLZGnkwh"/>
      <point x="1770" y="413" type="line" identifier="nDnDHzAMXL"/>
      <point x="958" y="413" type="line" identifier="QX1V08aTu0"/>
      <point x="958" y="2" type="line" identifier="Y750RHTvDj"/>
      <point x="850" y="2" type="line" identifier="L2LsGnXiZ2"/>
      <point x="850" y="1249" type="line" identifier="sUWsr03vF4"/>
      <point x="932" y="1598" type="line" identifier="dbOUe6OhxL"/>
      <point x="962" y="1598" type="line" identifier="5BjRbcud80"/>
      <point x="962" y="1098" type="line" identifier="fNVDqwQo2o"/>
      <point x="1775" y="1098" type="line" identifier="wLqQQx7QVN"/>
      <point x="1775" y="1600" type="line" identifier="9eJelv8BOw"/>
      <point x="186" y="1600" type="line" identifier="lfZev3ICaC"/>
      <point x="37" y="1297" type="line" identifier="V1EWIdPahq"/>
    </contour>
  </outline>
</glyph>
<glyph name="S" format="2">
  <advance width="1672"/>
  <unicode hex="0053"/>
  <outline>
    <contour>
      <point x="6" y="0" type="line" identifier="09VlJ0BjUX"/>
      <point x="1666" y="0" type="line" identifier="EagWihqFM8"/>
      <point x="1666" y="801" type="line" identifier="KfNuQA7eZe"/>
      <point x="812" y="801" type="line" identifier="At364YZFEy"/>
      <point x="812" y="1276" type="line"/>
      <point x="880" y="1598" type="line"/>
      <point x="853" y="1598" type="line" identifier="3ZUkG35meB"/>
      <point x="853" y="1169" type="line" identifier="DTOJhFIl15"/>
      <point x="1666" y="1169" type="line" identifier="9KDcrfQ5Ui"/>
      <point x="1666" y="1600" type="line" identifier="SaF9ojRFrW"/>
      <point x="171" y="1600" type="line"/>
      <point x="9" y="1333" type="line"/>
      <point x="9" y="799" type="line" identifier="3sQ8t8BZ6b"/>
      <point x="852" y="799" type="line" identifier="yiV6OCBLHg"/>
      <point x="852" y="2" type="line" identifier="9kdl9SYsn8"/>
      <point x="819" y="2" type="line" identifier="yZDWuX8LLe"/>
      <point x="819" y="409" type="line" identifier="jYb9001DTm"/>
      <point x="6" y="409" type="line" identifier="ho4DrS0rdW"/>
    </contour>
  </outline>
</glyph>
<glyph name="W" format="2">
  <advance width="2667"/>
  <unicode hex="0057"/>
  <outline>
    <contour>
      <point x="853" y="1600" type="line" smooth="yes" identifier="12Pyby1xY2"/>
      <point x="41" y="1600" type="line" smooth="yes" identifier="5LJg4ajoG6"/>
      <point x="41" y="0" type="line" smooth="yes" identifier="ZqTZqAY3uY"/>
      <point x="1171" y="0" type="line" smooth="yes" identifier="rCeQLyjlsN"/>
      <point x="1239" y="75" type="line"/>
      <point x="1254" y="75" type="line"/>
      <point x="1254" y="0" type="line" smooth="yes" identifier="Pkl7cZ37MU"/>
      <point x="2452" y="0" type="line" smooth="yes" identifier="R4lklfJsHA"/>
      <point x="2647" y="375" type="line" smooth="yes" identifier="7g7f8Wu7K4"/>
      <point x="2647" y="1600" type="line" smooth="yes" identifier="RTOJW56qXy"/>
      <point x="1834" y="1600" type="line" identifier="JfSFAkWGZC"/>
      <point x="1834" y="366" type="line" smooth="yes" identifier="WWvGwSpq0g"/>
      <point x="1751" y="2" type="line" smooth="yes" identifier="oee4nqI8Wl"/>
      <point x="1761" y="2" type="line" identifier="Ljn2lpvpG8"/>
      <point x="1761" y="389" type="line"/>
      <point x="1761" y="1600" type="line" smooth="yes"/>
      <point x="949" y="1600" type="line"/>
      <point x="949" y="368" type="line"/>
      <point x="949" y="348" type="line"/>
      <point x="857" y="2" type="line" identifier="GlWB6PG54Z"/>
      <point x="853" y="2" type="line" identifier="iqeTRv7HXg"/>
    </contour>
  </outline>
</glyph>
<glyph name="X" format="2">
  <advance width="1794"/>
  <unicode hex="0058"/>
  <outline>
    <contour>
      <point x="905" y="799" type="line"/>
      <point x="961" y="753" type="line"/>
      <point x="961" y="0" type="line"/>
      <point x="1774" y="0" type="line"/>
      <point x="1774" y="566" type="line"/>
      <point x="1624" y="799" type="line"/>
      <point x="1624" y="801" type="line"/>
      <point x="1770" y="1031" type="line"/>
      <point x="1770" y="1600" type="line"/>
      <point x="957" y="1600" type="line"/>
      <point x="957" y="844" type="line"/>
      <point x="905" y="801" type="line"/>
      <point x="890" y="801" type="line"/>
      <point x="837" y="844" type="line"/>
      <point x="837" y="1600" type="line"/>
      <point x="25" y="1600" type="line"/>
      <point x="25" y="1031" type="line"/>
      <point x="170" y="801" type="line"/>
      <point x="170" y="799" type="line"/>
      <point x="21" y="566" type="line"/>
      <point x="21" y="0" type="line"/>
      <point x="833" y="0" type="line"/>
      <point x="833" y="753" type="line"/>
      <point x="890" y="799" type="line"/>
    </contour>
  </outline>
</glyph>
<glyph name="B.narrow" format="2">
  <advance width="1799"/>
  <outline>
    <contour>
      <point x="41" y="0" type="line" identifier="hvY9r8RmLr"/>
      <point x="1779" y="0" type="line" identifier="9QFpw7nfq7"/>
      <point x="1779" y="665" type="line" identifier="543PerILpr"/>
      <point x="1602" y="898" type="line" identifier="870ZhtaozS"/>
      <point x="1775" y="999" type="line" identifier="eGKH52Jgnk"/>
      <point x="1775" y="1600" type="line" identifier="FaP204GrdB"/>
      <point x="41" y="1600" type="line" identifier="JEev70GAj6"/>
    </contour>
    <contour>
      <point x="853" y="727" type="line" identifier="By7dfMihfe"/>
      <point x="853" y="1598" type="line" identifier="1p5hKrurVy"/>
      <point x="964" y="1598" type="line" identifier="Qby8aMtF2X"/>
      <point x="964" y="779" type="line" identifier="9lW01gQyU2"/>
    </contour>
    <contour>
      <point x="853" y="2" type="line" identifier="jaMSiLrCua"/>
      <point x="853" y="725" type="line" identifier="XSrxNd2axx"/>
      <point x="928" y="757" type="line" identifier="VyYlzRh5nq"/>
      <point x="965" y="721" type="line" identifier="lsRGatjQja"/>
      <point x="965" y="2" type="line" identifier="xhlDJ3CjD5"/>
    </contour>
  </outline>
</glyph>
<glyph name="C.wide" format="2">
  <advance width="1858"/>
  <outline>
    <contour>
      <point x="96" y="0" type="line" identifier="7lPhzTnk2Z"/>
      <point x="1835" y="0" type="line" identifier="qJVLZGnkwh"/>
      <point x="1835" y="2" type="line" identifier="Y750RHTvDj"/>
      <point x="909" y="2" type="line" identifier="L2LsGnXiZ2"/>
      <point x="909" y="1249" type="line" identifier="sUWsr03vF4"/>
      <point x="991" y="1598" type="line" identifier="dbOUe6OhxL"/>
      <point x="1834" y="1598" type="line" identifier="5BjRbcud80"/>
      <point x="1834" y="1600" type="line" identifier="9eJelv8BOw"/>
      <point x="244" y="1600" type="line" identifier="lfZev3ICaC"/>
      <point x="96" y="1297" type="line" identifier="V1EWIdPahq"/>
    </contour>
  </outline>
</glyph>
<glyph name="G.wide" format="2">
  <advance width="1869"/>
  <outline>
    <contour>
      <point x="37" y="0" type="line" identifier="7lPhzTnk2Z"/>
      <point x="1774" y="0" type="line" identifier="qJVLZGnkwh"/>
      <point x="1774" y="763" type="line" identifier="uek1NNj7De"/>
      <point x="894" y="763" type="line" identifier="qcvimxjndX"/>
      <point x="894" y="761" type="line" identifier="EARaY3Su65"/>
      <point x="969" y="761" type="line" identifier="4m6dHLVhZq"/>
      <point x="969" y="2" type="line" identifier="Y750RHTvDj"/>
      <point x="850" y="2" type="line" identifier="L2LsGnXiZ2"/>
      <point x="850" y="1240" type="line" identifier="sUWsr03vF4"/>
      <point x="914" y="1598" type="line" identifier="dbOUe6OhxL"/>
      <point x="1775" y="1598" type="line" identifier="5BjRbcud80"/>
      <point x="1775" y="1600" type="line" identifier="9eJelv8BOw"/>
      <point x="129" y="1600" type="line" identifier="lfZev3ICaC"/>
      <point x="37" y="1259" type="line" identifier="V1EWIdPahq"/>
    </contour>
  </outline>
</glyph>
<glyph name="K.alt" format="2">
  <advance width="1943"/>
  <outline>
    <contour>
      <point x="915" y="0" type="line" identifier="wmNm7XZsaF"/>
      <point x="915" y="799" type="line" identifier="O22liaP9Qk"/>
      <point x="973" y="799" type="line" identifier="ELFBWIb1vd"/>
      <point x="1029" y="739" type="line" identifier="DzXo67YEfw"/>
      <point x="1029" y="0" type="line" identifier="aKpYWD78l2"/>
      <point x="1842" y="0" type="line" identifier="ChS7KlqGi6"/>
      <point x="1842" y="643" type="line" identifier="sWLgkU8Vey"/>
      <point x="1692" y="801" type="line" identifier="Of0iQc0wBG"/>
      <point x="1847" y="1600" type="line" identifier="dMJ1ywOKQQ"/>
      <point x="1044" y="1600" type="line" identifier="08OWjR2YBJ"/>
      <point x="973" y="801" type="line" identifier="g4YLdZEoM3"/>
      <point x="915" y="801" type="line" identifier="uZuki3Isec"/>
      <point x="915" y="1600" type="line" identifier="nRfcNgqJ4H"/>
      <point x="102" y="1600" type="line" identifier="3XJlWt89ad"/>
      <point x="102" y="0" type="line" identifier="wdbO8kCovY"/>
    </contour>
  </outline>
</glyph>
<glyph name="K.narrow" format="2">
  <advance width="1798"/>
  <outline>
    <contour>
      <point x="853" y="0" type="line"/>
      <point x="853" y="811" type="line"/>
      <point x="921" y="903" type="line"/>
      <point x="1003" y="0" type="line"/>
      <point x="1777" y="0" type="line"/>
      <point x="1623" y="849" type="line"/>
      <point x="1752" y="898" type="line"/>
      <point x="1752" y="1600" type="line"/>
      <point x="942" y="1600" type="line"/>
      <point x="942" y="935" type="line"/>
      <point x="853" y="813" type="line"/>
      <point x="853" y="1600" type="line"/>
      <point x="41" y="1600" type="line"/>
      <point x="41" y="0" type="line"/>
    </contour>
  </outline>
</glyph>
<glyph name="M.narrow" format="2">
  <advance width="2667"/>
  <outline>
    <contour>
      <point x="1834" y="0" type="line" smooth="yes" identifier="12Pyby1xY2"/>
      <point x="2647" y="0" type="line" smooth="yes" identifier="5LJg4ajoG6"/>
      <point x="2647" y="1600" type="line" smooth="yes" identifier="ZqTZqAY3uY"/>
      <point x="235" y="1600" type="line" smooth="yes" identifier="R4lklfJsHA"/>
      <point x="41" y="1231" type="line" smooth="yes" identifier="7g7f8Wu7K4"/>
      <point x="41" y="0" type="line" smooth="yes" identifier="RTOJW56qXy"/>
      <point x="853" y="0" type="line" identifier="JfSFAkWGZC"/>
      <point x="853" y="1241" type="line" smooth="yes" identifier="WWvGwSpq0g"/>
      <point x="936" y="1598" type="line" smooth="yes" identifier="oee4nqI8Wl"/>
      <point x="926" y="1598" type="line" identifier="Ljn2lpvpG8"/>
      <point x="926" y="0" type="line" smooth="yes"/>
      <point x="1739" y="0" type="line"/>
      <point x="1739" y="1598" type="line" identifier="GlWB6PG54Z"/>
      <point x="1834" y="1598" type="line" identifier="iqeTRv7HXg"/>
    </contour>
  </outline>
</glyph>
<glyph name="N.narrow" format="2">
  <advance width="1802"/>
  <outline>
    <contour>
      <point x="41" y="0" type="line" smooth="yes"/>
      <point x="853" y="0" type="line"/>
      <point x="853" y="1268" type="line"/>
      <point x="946" y="1598" type="line"/>
      <point x="949" y="1598" type="line"/>
      <point x="949" y="0" type="line" smooth="yes"/>
      <point x="1761" y="0" type="line" smooth="yes"/>
      <point x="1761" y="1600" type="line" smooth="yes"/>
      <point x="912" y="1600" type="line" smooth="yes"/>
      <point x="861" y="1439" type="line"/>
      <point x="846" y="1439" type="line"/>
      <point x="846" y="1600" type="line"/>
      <point x="41" y="1600" type="line"/>
    </contour>
  </outline>
</glyph>
<glyph name="N.wide" format="2">
  <advance width="2324"/>
  <outline>
    <contour>
      <point x="41" y="0" type="line" identifier="CkwYPPvJLv"/>
      <point x="853" y="0" type="line" identifier="oHTJsN7drZ"/>
      <point x="853" y="1598" type="line" identifier="wfBbYd10Pm"/>
      <point x="862" y="1598" type="line" identifier="MEnBDHq6zU"/>
      <point x="1467" y="0" type="line" identifier="3Nbopwznvn"/>
      <point x="2284" y="0" type="line" identifier="uKfuudIUvA"/>
      <point x="2284" y="1600" type="line" identifier="XRdLFXiM4t"/>
      <point x="1471" y="1600" type="line" identifier="MUSJPjCIXg"/>
      <point x="1471" y="55" type="line" identifier="VILP20cFmq"/>
      <point x="1463" y="55" type="line" identifier="z5b04GDwRN"/>
      <point x="883" y="1600" type="line" identifier="LL64NQ6WBE"/>
      <point x="41" y="1600" type="line" identifier="dzUaaP1sjt"/>
    </contour>
  </outline>
</glyph>
<glyph name="R.alt" format="2">
  <advance width="1974"/>
  <outline>
    <contour>
      <point x="933" y="801" type="line"/>
      <point x="933" y="1598" type="line"/>
      <point x="1043" y="1598" type="line"/>
      <point x="1043" y="801" type="line"/>
    </contour>
    <contour>
      <point x="1860" y="0" type="line"/>
      <point x="1724" y="801" type="line"/>
      <point x="1856" y="801" type="line"/>
      <point x="1856" y="1600" type="line"/>
      <point x="120" y="1600" type="line"/>
      <point x="120" y="0" type="line"/>
      <point x="933" y="0" type="line"/>
      <point x="933" y="799" type="line"/>
      <point x="1022" y="797" type="line"/>
      <point x="1123" y="0" type="line"/>
    </contour>
  </outline>
</glyph>
<glyph name="S.alt" format="2">
  <advance width="1804"/>
  <outline>
    <contour>
      <point x="88" y="0" type="line" identifier="09VlJ0BjUX"/>
      <point x="1718" y="0" type="line" identifier="EagWihqFM8"/>
      <point x="1718" y="801" type="line" identifier="KfNuQA7eZe"/>
      <point x="798" y="801" type="line" identifier="At364YZFEy"/>
      <point x="798" y="1276" type="line"/>
      <point x="866" y="1598" type="line"/>
      <point x="904" y="1598" type="line" identifier="3ZUkG35meB"/>
      <point x="904" y="1354" type="line" identifier="DTOJhFIl15"/>
      <point x="1718" y="1354" type="line" identifier="9KDcrfQ5Ui"/>
      <point x="1718" y="1600" type="line" identifier="SaF9ojRFrW"/>
      <point x="248" y="1600" type="line"/>
      <point x="86" y="1333" type="line"/>
      <point x="86" y="799" type="line" identifier="3sQ8t8BZ6b"/>
      <point x="904" y="799" type="line" identifier="yiV6OCBLHg"/>
      <point x="904" y="2" type="line" identifier="9kdl9SYsn8"/>
      <point x="875" y="2" type="line" identifier="yZDWuX8LLe"/>
      <point x="875" y="243" type="line" identifier="jYb9001DTm"/>
      <point x="88" y="243" type="line" identifier="ho4DrS0rdW"/>
    </contour>
  </outline>
</glyph>
<glyph name="S.wide" format="2">
  <advance width="1678"/>
  <outline>
    <contour>
      <point x="25" y="0" type="line" identifier="09VlJ0BjUX"/>
      <point x="1655" y="0" type="line" identifier="EagWihqFM8"/>
      <point x="1655" y="801" type="line" identifier="KfNuQA7eZe"/>
      <point x="735" y="801" type="line" identifier="At364YZFEy"/>
      <point x="735" y="1276" type="line"/>
      <point x="803" y="1598" type="line"/>
      <point x="1655" y="1598" type="line" identifier="3ZUkG35meB"/>
      <point x="1655" y="1600" type="line" identifier="SaF9ojRFrW"/>
      <point x="185" y="1600" type="line"/>
      <point x="23" y="1333" type="line"/>
      <point x="23" y="799" type="line" identifier="3sQ8t8BZ6b"/>
      <point x="842" y="799" type="line" identifier="yiV6OCBLHg"/>
      <point x="842" y="2" type="line" identifier="9kdl9SYsn8"/>
      <point x="25" y="2" type="line" identifier="yZDWuX8LLe"/>
    </contour>
  </outline>
</glyph>
<glyph name="Y.alt" format="2">
  <advance width="1800"/>
  <outline>
    <contour>
      <point x="47" y="2" type="line"/>
      <point x="47" y="0" type="line"/>
      <point x="1743" y="0" type="line" identifier="oOtn61SmRY"/>
      <point x="1743" y="1600" type="line" identifier="8OglXgblhr"/>
      <point x="931" y="1600" type="line" identifier="db0bPhBdaU"/>
      <point x="931" y="801" type="line" identifier="MTAeavIVWY"/>
      <point x="836" y="801" type="line" identifier="lggLiivmLt"/>
      <point x="836" y="1600" type="line" identifier="UPaHY3UudR"/>
      <point x="23" y="1600" type="line" identifier="ZnCDQVdtyD"/>
      <point x="23" y="799" type="line" identifier="uqAJBjDIOT"/>
      <point x="931" y="799" type="line" identifier="7JgTtdb0jg"/>
      <point x="931" y="2" type="line"/>
    </contour>
  </outline>
</glyph>
<glyph name="Z.wide" format="2">
  <advance width="1751"/>
  <outline>
    <contour>
      <point x="6" y="0" type="line"/>
      <point x="1745" y="0" type="line" identifier="pzdvPTirLJ"/>
      <point x="1745" y="2" type="line"/>
      <point x="819" y="2" type="line"/>
      <point x="819" y="231" type="line"/>
      <point x="1740" y="1574" type="line" identifier="yyb1NCCI5w"/>
      <point x="1740" y="1600" type="line" identifier="5FogYRSgkk"/>
      <point x="10" y="1600" type="line" identifier="svlFvrau4c"/>
      <point x="10" y="1598" type="line"/>
      <point x="927" y="1598" type="line"/>
      <point x="927" y="1574" type="line"/>
      <point x="6" y="234" type="line" identifier="teVKnpBcVb"/>
    </contour>
  </outline>
</glyph>
<glyph name="one.narrow" format="2">
  <advance width="1116"/>
  <outline>
    <contour>
      <point x="1075" y="0" type="line" identifier="5nmxQXofSG"/>
      <point x="1075" y="1600" type="line" identifier="4rjIeWbSbx"/>
      <point x="6" y="1600" type="line"/>
      <point x="6" y="1598" type="line"/>
      <point x="263" y="1598" type="line"/>
      <point x="263" y="0" type="line"/>
    </contour>
  </outline>
</glyph>
<glyph name="six.wide" format="2">
  <advance width="1935"/>
  <outline>
    <contour>
      <point x="97" y="0" type="line" identifier="uiw6aBUf4P"/>
      <point x="1836" y="0" type="line" identifier="jtYkxiUX6G"/>
      <point x="1836" y="801" type="line" identifier="2G5L37c87I"/>
      <point x="910" y="801" type="line"/>
      <point x="910" y="1439" type="line"/>
      <point x="955" y="1598" type="line"/>
      <point x="1835" y="1598" type="line"/>
      <point x="1835" y="1600" type="line" identifier="oGvEEuxnYv"/>
      <point x="144" y="1600" type="line" identifier="xR3pEHbMJx"/>
      <point x="97" y="1440" type="line" identifier="KnMArb0tv8"/>
    </contour>
    <contour>
      <point x="1023" y="799" type="line"/>
      <point x="1023" y="2" type="line"/>
      <point x="910" y="2" type="line"/>
      <point x="910" y="799" type="line"/>
    </contour>
  </outline>
</glyph>
<glyph name="three.wide" format="2">
  <advance width="1691"/>
  <outline>
    <contour>
      <point x="6" y="0" type="line" identifier="O9abUc1nmN"/>
      <point x="1651" y="0" type="line" identifier="kMJYMTfXCq"/>
      <point x="1651" y="810" type="line" identifier="su2XmdS8e8"/>
      <point x="1499" y="810" type="line" identifier="JQaOzDQqlF"/>
      <point x="1499" y="816" type="line"/>
      <point x="1594" y="899" type="line" identifier="S91TzLL02W"/>
      <point x="1594" y="1600" type="line" identifier="xg8x2Ki40p"/>
      <point x="9" y="1600" type="line" identifier="pE1XSRiy68"/>
      <point x="9" y="1598" type="line" identifier="7ogBYufWpl"/>
      <point x="782" y="1598" type="line" identifier="RHLvSX2Jv6"/>
      <point x="782" y="899" type="line" identifier="YUjTrmoWd9"/>
      <point x="694" y="817" type="line"/>
      <point x="694" y="810" type="line" identifier="iic1IBkDqp"/>
      <point x="114" y="810" type="line" identifier="lRLJEhXMlO"/>
      <point x="114" y="808" type="line" identifier="8aKgEELrVU"/>
      <point x="838" y="808" type="line" identifier="Dm8zjmbhNr"/>
      <point x="838" y="2" type="line" identifier="xv9CFHiFgB"/>
      <point x="6" y="2" type="line" identifier="YajKQV3MHP"/>
    </contour>
  </outline>
</glyph>
